<svg xmlns="http://www.w3.org/2000/svg" xmlns:xlink="http://www.w3.org/1999/xlink" width="291" zoomAndPan="magnify" viewBox="0 0 218.25 32.999998" height="44" preserveAspectRatio="xMidYMid meet" version="1.0"><defs><g/><clipPath id="799e6f50a4"><path d="M 11.972656 2.625 L 39.617188 2.625 L 39.617188 29.230469 L 11.972656 29.230469 Z M 11.972656 2.625 " clip-rule="nonzero"/></clipPath><clipPath id="9e6f7ec1ed"><path d="M 14.964844 2.625 L 36.527344 2.625 C 38.179688 2.625 39.519531 3.964844 39.519531 5.617188 L 39.519531 26.242188 C 39.519531 27.894531 38.179688 29.230469 36.527344 29.230469 L 14.964844 29.230469 C 13.3125 29.230469 11.972656 27.894531 11.972656 26.242188 L 11.972656 5.617188 C 11.972656 3.964844 13.3125 2.625 14.964844 2.625 Z M 14.964844 2.625 " clip-rule="nonzero"/></clipPath><clipPath id="3152f670f0"><path d="M 0.972656 0.625 L 28.617188 0.625 L 28.617188 27.230469 L 0.972656 27.230469 Z M 0.972656 0.625 " clip-rule="nonzero"/></clipPath><clipPath id="4307b16f47"><path d="M 3.964844 0.625 L 25.527344 0.625 C 27.179688 0.625 28.519531 1.964844 28.519531 3.617188 L 28.519531 24.242188 C 28.519531 25.894531 27.179688 27.230469 25.527344 27.230469 L 3.964844 27.230469 C 2.3125 27.230469 0.972656 25.894531 0.972656 24.242188 L 0.972656 3.617188 C 0.972656 1.964844 2.3125 0.625 3.964844 0.625 Z M 3.964844 0.625 " clip-rule="nonzero"/></clipPath><clipPath id="d53fa6bac5"><rect x="0" width="29" y="0" height="28"/></clipPath><clipPath id="36400e43bb"><path d="M 11.972656 6.589844 L 38.132812 6.589844 L 38.132812 25.277344 L 11.972656 25.277344 Z M 11.972656 6.589844 " clip-rule="nonzero"/></clipPath></defs><g fill="#ffd700" fill-opacity="1"><g transform="translate(45.010041, 23.777002)"><g><path d="M 11.703125 -2.90625 L 5.5625 -2.90625 L 4.578125 0 L 0.375 0 L 6.328125 -16.453125 L 10.96875 -16.453125 L 16.921875 0 L 12.6875 0 Z M 10.671875 -6 L 8.625 -12.03125 L 6.609375 -6 Z M 10.671875 -6 "/></g></g></g><g fill="#ffd700" fill-opacity="1"><g transform="translate(60.761039, 23.777002)"><g><path d="M 14.375 -13.078125 L 14.375 0 L 10.359375 0 L 10.359375 -1.78125 C 9.953125 -1.207031 9.398438 -0.742188 8.703125 -0.390625 C 8.015625 -0.0351562 7.25 0.140625 6.40625 0.140625 C 5.40625 0.140625 4.519531 -0.0820312 3.75 -0.53125 C 2.988281 -0.976562 2.394531 -1.625 1.96875 -2.46875 C 1.550781 -3.3125 1.34375 -4.300781 1.34375 -5.4375 L 1.34375 -13.078125 L 5.328125 -13.078125 L 5.328125 -5.984375 C 5.328125 -5.109375 5.550781 -4.425781 6 -3.9375 C 6.457031 -3.457031 7.066406 -3.21875 7.828125 -3.21875 C 8.609375 -3.21875 9.222656 -3.457031 9.671875 -3.9375 C 10.128906 -4.425781 10.359375 -5.109375 10.359375 -5.984375 L 10.359375 -13.078125 Z M 14.375 -13.078125 "/></g></g></g><g fill="#ffd700" fill-opacity="1"><g transform="translate(75.035377, 23.777002)"><g><path d="M 0.65625 -6.546875 C 0.65625 -7.898438 0.929688 -9.082031 1.484375 -10.09375 C 2.046875 -11.113281 2.820312 -11.894531 3.8125 -12.4375 C 4.800781 -12.988281 5.9375 -13.265625 7.21875 -13.265625 C 8.863281 -13.265625 10.234375 -12.832031 11.328125 -11.96875 C 12.429688 -11.113281 13.15625 -9.90625 13.5 -8.34375 L 9.234375 -8.34375 C 8.878906 -9.34375 8.1875 -9.84375 7.15625 -9.84375 C 6.414062 -9.84375 5.828125 -9.554688 5.390625 -8.984375 C 4.953125 -8.421875 4.734375 -7.609375 4.734375 -6.546875 C 4.734375 -5.484375 4.953125 -4.664062 5.390625 -4.09375 C 5.828125 -3.519531 6.414062 -3.234375 7.15625 -3.234375 C 8.1875 -3.234375 8.878906 -3.734375 9.234375 -4.734375 L 13.5 -4.734375 C 13.15625 -3.203125 12.425781 -2 11.3125 -1.125 C 10.207031 -0.25 8.84375 0.1875 7.21875 0.1875 C 5.9375 0.1875 4.800781 -0.0820312 3.8125 -0.625 C 2.820312 -1.175781 2.046875 -1.957031 1.484375 -2.96875 C 0.929688 -3.988281 0.65625 -5.179688 0.65625 -6.546875 Z M 0.65625 -6.546875 "/></g></g></g><g fill="#ffd700" fill-opacity="1"><g transform="translate(87.692421, 23.777002)"><g><path d="M 8.75 -3.40625 L 8.75 0 L 6.703125 0 C 5.253906 0 4.125 -0.351562 3.3125 -1.0625 C 2.5 -1.78125 2.09375 -2.941406 2.09375 -4.546875 L 2.09375 -9.75 L 0.5 -9.75 L 0.5 -13.078125 L 2.09375 -13.078125 L 2.09375 -16.265625 L 6.09375 -16.265625 L 6.09375 -13.078125 L 8.71875 -13.078125 L 8.71875 -9.75 L 6.09375 -9.75 L 6.09375 -4.5 C 6.09375 -4.113281 6.1875 -3.832031 6.375 -3.65625 C 6.5625 -3.488281 6.875 -3.40625 7.3125 -3.40625 Z M 8.75 -3.40625 "/></g></g></g><g fill="#ffd700" fill-opacity="1"><g transform="translate(95.6851, 23.777002)"><g><path d="M 3.46875 -14.4375 C 2.769531 -14.4375 2.195312 -14.644531 1.75 -15.0625 C 1.300781 -15.476562 1.078125 -15.988281 1.078125 -16.59375 C 1.078125 -17.21875 1.300781 -17.738281 1.75 -18.15625 C 2.195312 -18.570312 2.769531 -18.78125 3.46875 -18.78125 C 4.15625 -18.78125 4.722656 -18.570312 5.171875 -18.15625 C 5.617188 -17.738281 5.84375 -17.21875 5.84375 -16.59375 C 5.84375 -15.988281 5.617188 -15.476562 5.171875 -15.0625 C 4.722656 -14.644531 4.15625 -14.4375 3.46875 -14.4375 Z M 5.46875 -13.078125 L 5.46875 0 L 1.453125 0 L 1.453125 -13.078125 Z M 5.46875 -13.078125 "/></g></g></g><g fill="#ffd700" fill-opacity="1"><g transform="translate(101.076047, 23.777002)"><g><path d="M 7.40625 0.1875 C 6.125 0.1875 4.972656 -0.0820312 3.953125 -0.625 C 2.929688 -1.175781 2.125 -1.957031 1.53125 -2.96875 C 0.945312 -3.988281 0.65625 -5.179688 0.65625 -6.546875 C 0.65625 -7.890625 0.953125 -9.070312 1.546875 -10.09375 C 2.140625 -11.113281 2.953125 -11.894531 3.984375 -12.4375 C 5.015625 -12.988281 6.171875 -13.265625 7.453125 -13.265625 C 8.734375 -13.265625 9.890625 -12.988281 10.921875 -12.4375 C 11.953125 -11.894531 12.765625 -11.113281 13.359375 -10.09375 C 13.953125 -9.070312 14.25 -7.890625 14.25 -6.546875 C 14.25 -5.203125 13.945312 -4.015625 13.34375 -2.984375 C 12.75 -1.960938 11.929688 -1.175781 10.890625 -0.625 C 9.847656 -0.0820312 8.6875 0.1875 7.40625 0.1875 Z M 7.40625 -3.28125 C 8.175781 -3.28125 8.828125 -3.5625 9.359375 -4.125 C 9.898438 -4.6875 10.171875 -5.492188 10.171875 -6.546875 C 10.171875 -7.585938 9.910156 -8.390625 9.390625 -8.953125 C 8.867188 -9.515625 8.222656 -9.796875 7.453125 -9.796875 C 6.671875 -9.796875 6.019531 -9.519531 5.5 -8.96875 C 4.988281 -8.414062 4.734375 -7.609375 4.734375 -6.546875 C 4.734375 -5.492188 4.988281 -4.6875 5.5 -4.125 C 6.007812 -3.5625 6.644531 -3.28125 7.40625 -3.28125 Z M 7.40625 -3.28125 "/></g></g></g><g fill="#ffd700" fill-opacity="1"><g transform="translate(114.483134, 23.777002)"><g><path d="M 9.421875 -13.21875 C 10.953125 -13.21875 12.175781 -12.722656 13.09375 -11.734375 C 14.007812 -10.742188 14.46875 -9.378906 14.46875 -7.640625 L 14.46875 0 L 10.484375 0 L 10.484375 -7.109375 C 10.484375 -7.984375 10.253906 -8.660156 9.796875 -9.140625 C 9.347656 -9.628906 8.738281 -9.875 7.96875 -9.875 C 7.207031 -9.875 6.597656 -9.628906 6.140625 -9.140625 C 5.691406 -8.660156 5.46875 -7.984375 5.46875 -7.109375 L 5.46875 0 L 1.453125 0 L 1.453125 -13.078125 L 5.46875 -13.078125 L 5.46875 -11.34375 C 5.875 -11.925781 6.421875 -12.382812 7.109375 -12.71875 C 7.796875 -13.050781 8.566406 -13.21875 9.421875 -13.21875 Z M 9.421875 -13.21875 "/></g></g></g><g fill="#ffd700" fill-opacity="1"><g transform="translate(128.757472, 23.777002)"><g/></g></g><g fill="#ffd700" fill-opacity="1"><g transform="translate(132.202972, 23.777002)"><g><path d="M 3.46875 -14.4375 C 2.769531 -14.4375 2.195312 -14.644531 1.75 -15.0625 C 1.300781 -15.476562 1.078125 -15.988281 1.078125 -16.59375 C 1.078125 -17.21875 1.300781 -17.738281 1.75 -18.15625 C 2.195312 -18.570312 2.769531 -18.78125 3.46875 -18.78125 C 4.15625 -18.78125 4.722656 -18.570312 5.171875 -18.15625 C 5.617188 -17.738281 5.84375 -17.21875 5.84375 -16.59375 C 5.84375 -15.988281 5.617188 -15.476562 5.171875 -15.0625 C 4.722656 -14.644531 4.15625 -14.4375 3.46875 -14.4375 Z M 5.46875 -13.078125 L 5.46875 0 L 1.453125 0 L 1.453125 -13.078125 Z M 5.46875 -13.078125 "/></g></g></g><g fill="#ffd700" fill-opacity="1"><g transform="translate(137.593919, 23.777002)"><g><path d="M 9.421875 -13.21875 C 10.953125 -13.21875 12.175781 -12.722656 13.09375 -11.734375 C 14.007812 -10.742188 14.46875 -9.378906 14.46875 -7.640625 L 14.46875 0 L 10.484375 0 L 10.484375 -7.109375 C 10.484375 -7.984375 10.253906 -8.660156 9.796875 -9.140625 C 9.347656 -9.628906 8.738281 -9.875 7.96875 -9.875 C 7.207031 -9.875 6.597656 -9.628906 6.140625 -9.140625 C 5.691406 -8.660156 5.46875 -7.984375 5.46875 -7.109375 L 5.46875 0 L 1.453125 0 L 1.453125 -13.078125 L 5.46875 -13.078125 L 5.46875 -11.34375 C 5.875 -11.925781 6.421875 -12.382812 7.109375 -12.71875 C 7.796875 -13.050781 8.566406 -13.21875 9.421875 -13.21875 Z M 9.421875 -13.21875 "/></g></g></g><g fill="#ffd700" fill-opacity="1"><g transform="translate(151.868257, 23.777002)"><g><path d="M 8.75 -3.40625 L 8.75 0 L 6.703125 0 C 5.253906 0 4.125 -0.351562 3.3125 -1.0625 C 2.5 -1.78125 2.09375 -2.941406 2.09375 -4.546875 L 2.09375 -9.75 L 0.5 -9.75 L 0.5 -13.078125 L 2.09375 -13.078125 L 2.09375 -16.265625 L 6.09375 -16.265625 L 6.09375 -13.078125 L 8.71875 -13.078125 L 8.71875 -9.75 L 6.09375 -9.75 L 6.09375 -4.5 C 6.09375 -4.113281 6.1875 -3.832031 6.375 -3.65625 C 6.5625 -3.488281 6.875 -3.40625 7.3125 -3.40625 Z M 8.75 -3.40625 "/></g></g></g><g fill="#ffd700" fill-opacity="1"><g transform="translate(159.860936, 23.777002)"><g><path d="M 13.78125 -6.75 C 13.78125 -6.375 13.757812 -5.984375 13.71875 -5.578125 L 4.640625 -5.578125 C 4.703125 -4.765625 4.960938 -4.144531 5.421875 -3.71875 C 5.890625 -3.289062 6.457031 -3.078125 7.125 -3.078125 C 8.125 -3.078125 8.820312 -3.5 9.21875 -4.34375 L 13.484375 -4.34375 C 13.265625 -3.476562 12.867188 -2.703125 12.296875 -2.015625 C 11.722656 -1.328125 11.003906 -0.785156 10.140625 -0.390625 C 9.285156 -0.00390625 8.328125 0.1875 7.265625 0.1875 C 5.984375 0.1875 4.84375 -0.0820312 3.84375 -0.625 C 2.84375 -1.175781 2.0625 -1.957031 1.5 -2.96875 C 0.9375 -3.988281 0.65625 -5.179688 0.65625 -6.546875 C 0.65625 -7.898438 0.929688 -9.082031 1.484375 -10.09375 C 2.046875 -11.113281 2.828125 -11.894531 3.828125 -12.4375 C 4.828125 -12.988281 5.972656 -13.265625 7.265625 -13.265625 C 8.535156 -13.265625 9.660156 -13 10.640625 -12.46875 C 11.628906 -11.9375 12.398438 -11.175781 12.953125 -10.1875 C 13.503906 -9.207031 13.78125 -8.0625 13.78125 -6.75 Z M 9.6875 -7.8125 C 9.6875 -8.5 9.453125 -9.046875 8.984375 -9.453125 C 8.515625 -9.859375 7.925781 -10.0625 7.21875 -10.0625 C 6.550781 -10.0625 5.984375 -9.863281 5.515625 -9.46875 C 5.054688 -9.082031 4.773438 -8.53125 4.671875 -7.8125 Z M 9.6875 -7.8125 "/></g></g></g><g fill="#ffd700" fill-opacity="1"><g transform="translate(172.77581, 23.777002)"><g><path d="M 5.46875 -17.34375 L 5.46875 0 L 1.453125 0 L 1.453125 -17.34375 Z M 5.46875 -17.34375 "/></g></g></g><g clip-path="url(#799e6f50a4)"><g clip-path="url(#9e6f7ec1ed)"><g transform="matrix(1, 0, 0, 1, 11, 2)"><g clip-path="url(#d53fa6bac5)"><g clip-path="url(#3152f670f0)"><g clip-path="url(#4307b16f47)"><path fill="#ffd700" d="M 0.972656 0.625 L 28.515625 0.625 L 28.515625 27.230469 L 0.972656 27.230469 Z M 0.972656 0.625 " fill-opacity="1" fill-rule="nonzero"/></g></g></g></g></g></g><g clip-path="url(#36400e43bb)"><path fill="#ffd700" d="M 38.023438 33.382812 L 9.691406 33.382812 C 7.1875 33.382812 5.203125 31.394531 5.203125 28.890625 L 5.203125 0.648438 C 5.203125 -1.859375 7.1875 -3.84375 9.691406 -3.84375 L 38.023438 -3.84375 C 40.527344 -3.84375 42.515625 -1.859375 42.515625 0.648438 L 42.515625 28.976562 C 42.429688 31.394531 40.441406 33.382812 38.023438 33.382812 Z M 38.023438 33.382812 " fill-opacity="1" fill-rule="nonzero"/><path fill="#ffd700" d="M 38.023438 35.109375 L 9.691406 35.109375 C 6.324219 35.109375 3.558594 32.34375 3.558594 28.976562 L 3.558594 0.648438 C 3.558594 -2.722656 6.324219 -5.484375 9.691406 -5.484375 L 38.023438 -5.484375 C 41.390625 -5.484375 44.15625 -2.722656 44.15625 0.648438 L 44.15625 28.976562 C 44.15625 32.34375 41.390625 35.109375 38.023438 35.109375 Z M 9.691406 -2.117188 C 8.136719 -2.117188 6.929688 -0.90625 6.929688 0.648438 L 6.929688 28.976562 C 6.929688 30.53125 8.136719 31.742188 9.691406 31.742188 L 38.023438 31.742188 C 39.578125 31.742188 40.785156 30.53125 40.785156 28.976562 L 40.785156 0.648438 C 40.785156 -0.90625 39.578125 -2.117188 38.023438 -2.117188 Z M 9.691406 -2.117188 " fill-opacity="1" fill-rule="nonzero"/></g><path fill="#000000" d="M 25.757812 22.152344 L 24.460938 19.214844 L 18.761719 19.214844 L 17.464844 22.152344 L 14.269531 22.152344 L 20.144531 8.59375 L 23.082031 8.59375 L 28.953125 22.152344 Z M 21.613281 12.652344 L 19.882812 16.625 L 23.253906 16.625 Z M 21.613281 12.652344 " fill-opacity="1" fill-rule="nonzero"/><path fill="#000000" d="M 30.507812 10.40625 C 30.164062 10.0625 29.992188 9.628906 29.992188 9.199219 C 29.992188 8.679688 30.164062 8.332031 30.507812 7.988281 C 30.855469 7.644531 31.285156 7.46875 31.71875 7.46875 C 32.234375 7.46875 32.582031 7.644531 32.925781 7.988281 C 33.273438 8.332031 33.445312 8.765625 33.445312 9.199219 C 33.445312 9.714844 33.273438 10.0625 32.925781 10.40625 C 32.582031 10.753906 32.148438 10.925781 31.71875 10.925781 C 31.199219 10.839844 30.855469 10.664062 30.507812 10.40625 Z M 33.1875 22.152344 L 30.25 22.152344 L 30.25 11.703125 L 33.1875 11.703125 Z M 33.1875 22.152344 " fill-opacity="1" fill-rule="nonzero"/></svg>